<?xml version="1.0" encoding="UTF-8" standalone="no"?>
<svg viewBox="0 0 48 48" xmlns="http://www.w3.org/2000/svg" xmlns:xlink="http://www.w3.org/1999/xlink" >
<defs>
<linearGradient id="linearGradient5060">
<stop offset="0"/>
<stop offset="1" stop-opacity="0"/>
</linearGradient>
<linearGradient gradientUnits="userSpaceOnUse" id="linearGradient6715" x2="0" y1="-150.69685" y2="327.66039">
<stop offset="0" stop-opacity="0"/>
<stop offset=".5"/>
<stop offset="1" stop-opacity="0"/>
</linearGradient>
<linearGradient gradientTransform="matrix(1.51684,0,0,.70898,-.87957,-1.31817)" gradientUnits="userSpaceOnUse" id="linearGradient491" x1="6.2298" x2="9.89809" y1="13.77307" y2="66.83405">
<stop offset="0" stop-color="#fff" stop-opacity=".87629"/>
<stop offset="1" stop-color="#fffffe" stop-opacity="0"/>
</linearGradient>
<linearGradient gradientTransform="matrix(1.31749,0,0,.81626,-.87957,-1.31817)" gradientUnits="userSpaceOnUse" id="linearGradient322" x1="13.0357" x2="12.85377" y1="32.56718" y2="46.68931">
<stop offset="0" stop-color="#fff"/>
<stop offset="1" stop-color="#fff" stop-opacity="0"/>
</linearGradient>
<linearGradient gradientUnits="userSpaceOnUse" id="linearGradient3104" x1="18.11271" x2="15.51489" y1="31.36775" y2="6.18025">
<stop offset="0" stop-color="#424242"/>
<stop offset="1" stop-color="#777"/>
</linearGradient>
<linearGradient gradientUnits="userSpaceOnUse" id="linearGradient9772" x1="22.17598" x2="22.06533" y1="36.988" y2="32.0505">
<stop offset="0" stop-color="#6194cb"/>
<stop offset="1" stop-color="#729fcf"/>
</linearGradient>
<radialGradient cx="20.70602" cy="37.51799" gradientTransform="matrix(1.05502,-2.734504e-2,.1777,1.19093,-3.57218,-7.1253)" gradientUnits="userSpaceOnUse" id="radialGradient238" r="30.9052">
<stop offset="0" stop-color="#202020"/>
<stop offset="1" stop-color="#b9b9b9"/>
</radialGradient>
<radialGradient cx="605.71429" cy="486.64789" gradientTransform="matrix(-2.77439,0,0,1.96971,112.7623,-872.8854)" gradientUnits="userSpaceOnUse" id="radialGradient6719" r="117.14286" xlink:href="#linearGradient5060"/>
<radialGradient cx="605.71429" cy="486.64789" gradientTransform="matrix(2.77439,0,0,1.96971,-1891.633,-872.8854)" gradientUnits="userSpaceOnUse" id="radialGradient6717" r="117.14286" xlink:href="#linearGradient5060"/>
</defs>
<g transform="matrix(2.262383e-2,0,0,2.086758e-2,43.38343,36.36962)">
<path d="m-1559.2523-150.69685h1339.6335v478.35718h-1339.6335z" fill="url(#linearGradient6715)" opacity=".40206"/>
<path d="m-219.61876-150.68038v478.33079c142.87417.90045 345.40022-107.16966 345.40014-239.19618s-159.43682-239.13459-345.40014-239.13462z" fill="url(#radialGradient6717)" opacity=".40206"/>
<path d="m-1559.2523-150.68038v478.33079c-142.8742.90045-345.4002-107.16966-345.4002-239.19618s159.4368-239.13459 345.4002-239.13462z" fill="url(#radialGradient6719)" opacity=".40206"/>
</g>
<path d="m4.52178,38.68742c.0218.4163.4599.83261.87621.83261h31.32702c.4163,0 .81081-.41631.78902-.83261l-.93644-27.22674c-.0218-.4163-.4599-.83262-.8762-.83262h-13.27087c-.48506,0-1.23447-.31559-1.40164-1.10663l-.61139-2.89307c-.15547-.73567-.88221-1.03789-1.29852-1.03789h-14.77886c-.41631,0-.81082.4163-.78902.83261l.97071,32.26433z" fill="url(#radialGradient238)" stroke="url(#linearGradient3104)" stroke-linecap="round" stroke-linejoin="round"/>
<path d="m5.22659,22.5625h30.26558" fill="#729fcf" opacity=".11364" stroke="#000" stroke-linecap="round" stroke-linejoin="round"/>
<path d="m5.04217,18.5625h30.44693" fill="#729fcf" opacity=".11364" stroke="#000" stroke-linecap="round" stroke-linejoin="round"/>
<path d="m4.9807,12.5625h30.50736" fill="#729fcf" opacity=".11364" stroke="#000" stroke-linecap="round" stroke-linejoin="round"/>
<path d="m5.38616,32.5625h30.10872" fill="#729fcf" opacity=".11364" stroke="#000" stroke-linecap="round" stroke-linejoin="round"/>
<path d="m5.50914,34.5625h29.98775" fill="#729fcf" opacity=".11364" stroke="#000" stroke-linecap="round" stroke-linejoin="round"/>
<path d="m5.04217,16.5625h30.44693" fill="#729fcf" opacity=".11364" stroke="#000" stroke-linecap="round" stroke-linejoin="round"/>
<path d="m5.01143,14.5625h30.47715" fill="#729fcf" opacity=".11364" stroke="#000" stroke-linecap="round" stroke-linejoin="round"/>
<path d="m4.9221,10.5625h15.28082" fill="#729fcf" opacity=".11364" stroke="#000" stroke-linecap="round" stroke-linejoin="round"/>
<path d="m4.87375,8.5625h14.78373" fill="#729fcf" opacity=".11364" stroke="#000" stroke-linecap="round" stroke-linejoin="round"/>
<path d="m5.32467,28.5625h30.16921" fill="#729fcf" opacity=".11364" stroke="#000" stroke-linecap="round" stroke-linejoin="round"/>
<path d="m5.28806,26.5625h30.20512" fill="#729fcf" opacity=".11364" stroke="#000" stroke-linecap="round" stroke-linejoin="round"/>
<path d="m5.22659,24.5625h30.26558" fill="#729fcf" opacity=".11364" stroke="#000" stroke-linecap="round" stroke-linejoin="round"/>
<path d="m5.19585,20.5625h30.2958" fill="#729fcf" opacity=".11364" stroke="#000" stroke-linecap="round" stroke-linejoin="round"/>
<path d="m5.32467,30.5625h30.16921" fill="#729fcf" opacity=".11364" stroke="#000" stroke-linecap="round" stroke-linejoin="round"/>
<path d="m5.50914,36.5625h29.98775" fill="#729fcf" opacity=".11364" stroke="#000" stroke-linecap="round" stroke-linejoin="round"/>
<path d="m6.06834,38.86402c.01634.31223-.18091.52038-.49858.4163s-.53673-.31223-.55308-.62446l-.94772-32.06449c-.01634-.31223.16519-.50077.47741-.50077l14.42205-.04769c.31223,0 .93194.30047 1.13294,1.32218l.57349,2.81553c-.42705-.46526-.41919-.47962-.63756-1.15671l-.4061-1.25918c-.21905-.72765-.6982-.8319-1.01043-.8319h-12.88777c-.31223,0-.50948.20815-.49313.52039l.93801,31.51486-.10952-.10408z" display="block" fill="url(#linearGradient491)" opacity=".45143"/>
<g fill="#fff" fill-opacity=".75706" transform="matrix(1.04076,0,5.449252e-2,1.04076,-8.6702,2.67059)">
<path d="m42.41718,8.51518c.00508-.09711-.12816-.24699-.23512-.24701l-13.0314-.00212c0,0 .91171.58795 2.20181.59624l11.0535.07102c.01109-.21173.00272-.25603.01121-.41814z" fill="#fff" fill-opacity=".50847"/>
</g>
<path d="m39.78353,39.51062c1.14389-.04406 1.96308-1.0963 2.04704-2.321 .79179-11.54869 1.65936-21.23195 1.65936-21.23195 .07215-.24748-.16791-.49497-.48014-.49497h-34.37116l-1.85032,21.86689c-.11456.98207-.46601,1.80472-1.54984,2.18371l34.54506-.00268z" display="block" fill="url(#linearGradient9772)" stroke="#3465a4" stroke-linejoin="round"/>
<path d="m9.62024,16.46392 32.7911.06481-1.57405,20.00198c-.08432,1.07151-.45068,1.42821-1.87266,1.42821l-31.39474-.03241c.2336-.32081.33376-.98862.3351-1.00461l1.71525-20.45799z" fill="none" opacity=".46591" stroke="url(#linearGradient322)" stroke-linecap="round"/>
<path d="m9.62025,16.22318-1.16665,15.64327c0,0 8.29615-4.14808 18.66635-4.14808s15.55529-11.49519 15.55529-11.49519h-33.05499z" fill="#fff" fill-opacity=".08929" fill-rule="evenodd"/>
</svg>
